<svg xmlns="http://www.w3.org/2000/svg" viewBox="0 0 600 167" width="200" height="56">
	<style>
		tspan { white-space:pre }
		.shp0 { fill: #035c8c } 
		.shp1 { fill: #51e9d2 } 
		.shp2 { fill: #ffffff } 
	</style>
	<path class="shp0" d="M205.87 98.2L192 98.2L192 111.53C192 118.2 189.07 120.6 184.4 120.6C179.73 120.6 176.8 118.2 176.8 111.53L176.8 61.13C176.8 54.47 179.73 51.93 184.4 51.93C189.07 51.93 192 54.47 192 61.13L192 71.13L205.87 71.13L205.87 62.07C205.87 47.13 198.4 38.6 184 38.6C169.6 38.6 162.13 47.13 162.13 62.07L162.13 110.6C162.13 125.53 169.6 134.07 184 134.07C198.4 134.07 205.87 125.53 205.87 110.6L205.87 98.2ZM229.46 79L229.46 53L254.8 53L254.8 39.67L214.8 39.67L214.8 133L254.8 133L254.8 119.67L229.46 119.67L229.46 92.33L249.6 92.33L249.6 79L229.46 79ZM263.86 39.67L263.86 133L302.66 133L302.66 119.67L278.53 119.67L278.53 39.67L263.86 39.67ZM309.06 39.67L309.06 133L347.86 133L347.86 119.67L323.73 119.67L323.73 39.67L309.06 39.67ZM368.93 79L368.93 53L394.26 53L394.26 39.67L354.26 39.67L354.26 133L394.26 133L394.26 119.67L368.93 119.67L368.93 92.33L389.06 92.33L389.06 79L368.93 79ZM399.06 39.67L399.06 53L414.39 53L414.39 133L429.06 133L429.06 53L444.39 53L444.39 39.67L399.06 39.67ZM465.46 79L465.46 53L490.79 53L490.79 39.67L450.79 39.67L450.79 133L490.79 133L490.79 119.67L465.46 119.67L465.46 92.33L485.59 92.33L485.59 79L465.46 79ZM542.39 98.2L528.52 98.2L528.52 111.53C528.52 118.2 525.59 120.6 520.93 120.6C516.26 120.6 513.33 118.2 513.33 111.53L513.33 61.13C513.33 54.47 516.26 51.93 520.93 51.93C525.59 51.93 528.52 54.47 528.52 61.13L528.52 71.13L542.39 71.13L542.39 62.07C542.39 47.13 534.92 38.6 520.53 38.6C506.13 38.6 498.66 47.13 498.66 62.07L498.66 110.6C498.66 125.53 506.13 134.07 520.53 134.07C534.92 134.07 542.39 125.53 542.39 110.6L542.39 98.2ZM565.99 133L565.99 93L582.66 93L582.66 133L597.59 133L597.59 39.67L582.66 39.67L582.66 79.67L565.99 79.67L565.99 39.67L551.32 39.67L551.32 133L565.99 133Z" />
	<path class="shp1" d="M60.94 34.97L137.19 34.97L137.19 137.87L60.94 137.87L60.94 34.97Z" />
	<path class="shp2" d="M61.03 37.11C61.39 37.12 61.78 37.12 62.2 37.11C123.29 40.69 126.67 128.69 62.2 133.2C61.78 133.19 61.39 133.19 61.04 133.19C118.69 117.94 115.31 51.04 61.03 37.11" />
	<path class="shp2" d="M73.71 37.11C74.07 37.12 74.45 37.12 74.87 37.11C135.97 40.69 139.35 128.69 74.87 133.2C74.45 133.19 74.07 133.19 73.71 133.19C131.37 117.94 127.99 51.04 73.71 37.11" />
	<path class="shp2" d="M86.38 37.11C86.74 37.12 87.13 37.12 87.55 37.11C148.64 40.69 152.03 128.69 87.55 133.2C87.13 133.19 86.74 133.19 86.39 133.19C144.04 117.94 140.66 51.04 86.38 37.11" />
	<path class="shp1" d="M57.3 37.11C56.95 37.12 56.56 37.12 56.14 37.11C-4.95 40.69 -8.34 128.69 56.14 133.2C56.56 133.19 56.95 133.19 57.3 133.19C-0.36 117.94 3.03 51.04 57.3 37.11" />
</svg>