<?xml version="1.0" encoding="utf-8"?>
<!-- Generator: Adobe Illustrator 24.2.3, SVG Export Plug-In . SVG Version: 6.00 Build 0)  -->
<svg version="1.1" xmlns="http://www.w3.org/2000/svg" xmlns:xlink="http://www.w3.org/1999/xlink" x="0px" y="0px" width="255px"
	 height="255px" viewBox="0 0 255 255" style="enable-background:new 0 0 255 255;" xml:space="preserve">
<style type="text/css">
	.st0{display:none;}
	.st1{display:inline;fill:#FAF7F3;}
	.st2{fill:none;stroke:#2C3E50;stroke-width:1.9145;stroke-linecap:round;stroke-linejoin:round;stroke-miterlimit:10;}
	.st3{fill:none;stroke:#2C3E50;stroke-width:1.9145;stroke-linecap:round;stroke-linejoin:round;}
	.st4{fill:none;stroke:#2C3E50;stroke-width:1.9145;stroke-linecap:round;stroke-linejoin:round;stroke-dasharray:2.6835,3.8336;}
	
		.st5{fill:none;stroke:#2C3E50;stroke-width:1.9145;stroke-linecap:round;stroke-linejoin:round;stroke-miterlimit:10;stroke-dasharray:3.8119,3.8119,0.3812,3.4308;}
</style>
<g id="Background" class="st0">
	<rect x="-472.5" y="-472.5" class="st1" width="1200" height="1200"/>
</g>
<g id="Object">
	<g id="New_Symbol">
	</g>
	<g id="New_Symbol_10">
	</g>
	<g id="New_Symbol_15_1_">
	</g>
	<g id="New_Symbol_15">
	</g>
	<g id="New_Symbol_22">
	</g>
	<g id="New_Symbol_13">
	</g>
	<g id="New_Symbol_16">
	</g>
	<g id="New_Symbol_24">
	</g>
	<g id="New_Symbol_11_1_">
		<g>
			<g>
				<polyline class="st2" points="116.64,139.11 116.64,201.51 65.24,201.51 65.24,139.11 				"/>
				<polyline class="st2" points="103.55,116.72 103.55,98.88 78.33,98.88 78.33,116.72 				"/>
				<rect x="73.86" y="90.79" class="st2" width="34.16" height="8.1"/>
				<path class="st2" d="M103.55,116.72c4.46,2.52,8.08,6.31,10.38,10.91c1.73,3.45,2.71,7.36,2.71,11.49H65.24
					c0-4.13,0.98-8.04,2.71-11.49c2.3-4.59,5.92-8.39,10.38-10.91"/>
				<polyline class="st2" points="99.72,90.79 104.83,67.84 77.05,67.84 82.16,90.79 				"/>
				<line class="st2" x1="65.24" y1="175.7" x2="116.64" y2="175.7"/>
				<path class="st2" d="M82.16,123.67c0,0-4.47-0.21-8.3,7.62"/>
				<line class="st2" x1="84.08" y1="104.2" x2="84.08" y2="111.54"/>
			</g>
			<g>
				<polyline class="st2" points="176.95,113.76 176.95,159.12 130.07,159.12 130.07,113.76 				"/>
				<rect x="137.93" y="66.47" class="st2" width="31.16" height="10.6"/>
				<path class="st2" d="M142.01,77.06v6.23c0,5.39-2.04,10.58-5.7,14.54c-1.5,1.62-2.77,3.45-3.77,5.44
					c-1.58,3.15-2.47,6.71-2.47,10.48"/>
				<path class="st2" d="M176.95,113.76c0-3.77-0.89-7.33-2.47-10.48c-1-1.99-2.27-3.82-3.77-5.44c-3.66-3.96-5.7-9.15-5.7-14.54
					v-6.23"/>
			</g>
			<path class="st2" d="M131.99,112.33c-0.59-0.06-1.22-0.09-1.92-0.09"/>
			<path class="st2" d="M176.95,116.09c-7.81,0-7.81-3.85-15.63-3.85c-7.81,0-7.81,3.85-15.63,3.85c-1.56,0-2.8-0.15-3.86-0.4"/>
			<path class="st2" d="M160.31,66.47v-11.8c0-3.93-2.98-7.16-6.8-7.57c-3.82,0.4-6.8,3.64-6.8,7.57v11.8"/>
			<line class="st2" x1="145.5" y1="70.82" x2="145.5" y2="77.06"/>
			<line class="st2" x1="153.51" y1="70.82" x2="153.51" y2="77.06"/>
			<line class="st2" x1="161.52" y1="70.82" x2="161.52" y2="77.06"/>
			<path class="st2" d="M158.7,77.07v59.08c0,2.65-0.62,5.27-1.8,7.65l0,0c-0.64,1.29-1.96,2.1-3.4,2.1c-1.44,0-2.76-0.82-3.4-2.1
				l0,0c-1.18-2.38-1.8-5-1.8-7.65V77.07"/>
			<line class="st2" x1="148.31" y1="101.11" x2="158.7" y2="101.11"/>
			<line class="st2" x1="130.07" y1="153.11" x2="176.95" y2="153.11"/>
			<path class="st2" d="M140.72,104.4c0,0-4.69,2.81-4.69,14.84"/>
			<line class="st2" x1="136.04" y1="128.28" x2="136.04" y2="144.12"/>
			<path class="st2" d="M139.17,189.55c0-3.11-2.52-5.63-5.63-5.63c-3.11,0-5.63,2.52-5.63,5.63c0,3.11,2.52,5.63,5.63,5.63
				C136.65,195.19,139.17,192.66,139.17,189.55z"/>
			<path class="st2" d="M150.14,172.89c0-3.11-2.52-5.63-5.63-5.63c-3.11,0-5.63,2.52-5.63,5.63c0,3.11,2.52,5.63,5.63,5.63
				C147.61,178.52,150.14,176,150.14,172.89z"/>
			<path class="st2" d="M76.51,195.88c0-3.11-2.52-5.63-5.63-5.63c-3.11,0-5.63,2.52-5.63,5.63c0,3.11,2.52,5.63,5.63,5.63
				C73.99,201.52,76.51,199,76.51,195.88z"/>
			<path class="st2" d="M93.43,195.88c0-3.11-2.52-5.63-5.63-5.63c-3.11,0-5.63,2.52-5.63,5.63c0,3.11,2.52,5.63,5.63,5.63
				C90.91,201.52,93.43,199,93.43,195.88z"/>
			<path class="st2" d="M111.73,195.88c0-3.11-2.52-5.63-5.63-5.63c-3.11,0-5.63,2.52-5.63,5.63c0,3.11,2.52,5.63,5.63,5.63
				C109.21,201.52,111.73,199,111.73,195.88z"/>
			<path class="st2" d="M116.64,183.96c0-3.11-2.52-5.63-5.63-5.63c-3.11,0-5.63,2.52-5.63,5.63c0,3.11,2.52,5.63,5.63,5.63
				C114.12,189.6,116.64,187.07,116.64,183.96z"/>
			<path class="st2" d="M100.09,183.45c0-3.11-2.52-5.63-5.63-5.63c-3.11,0-5.63,2.52-5.63,5.63c0,3.11,2.52,5.63,5.63,5.63
				C97.57,189.08,100.09,186.56,100.09,183.45z"/>
			<path class="st2" d="M82.31,184.15c0-3.11-2.52-5.63-5.63-5.63c-3.11,0-5.63,2.52-5.63,5.63c0,3.11,2.52,5.63,5.63,5.63
				C79.79,189.78,82.31,187.26,82.31,184.15z"/>
			<path class="st2" d="M160.55,195.88c0-3.11-2.52-5.63-5.63-5.63c-3.11,0-5.63,2.52-5.63,5.63c0,3.11,2.52,5.63,5.63,5.63
				C158.03,201.51,160.55,198.99,160.55,195.88z"/>
			<path class="st2" d="M169,178.34c0-3.11-2.52-5.63-5.63-5.63c-3.11,0-5.63,2.52-5.63,5.63c0,3.11,2.52,5.63,5.63,5.63
				C166.47,183.97,169,181.45,169,178.34z"/>
			<path class="st2" d="M185.65,191.66c0-3.11-2.52-5.63-5.63-5.63c-3.11,0-5.63,2.52-5.63,5.63c0,3.11,2.52,5.63,5.63,5.63
				C183.13,197.29,185.65,194.77,185.65,191.66z"/>
			<path class="st2" d="M190.57,172.89c0-3.11-2.52-5.63-5.63-5.63c-3.11,0-5.63,2.52-5.63,5.63c0,3.11,2.52,5.63,5.63,5.63
				C188.05,178.52,190.57,176,190.57,172.89z"/>
			<line class="st2" x1="73.86" y1="148.06" x2="109.83" y2="148.06"/>
			<g>
				<line class="st3" x1="73.86" y1="157.68" x2="76.32" y2="157.68"/>
				<line class="st4" x1="83.38" y1="157.68" x2="103.85" y2="157.68"/>
				<line class="st3" x1="107.38" y1="157.68" x2="109.83" y2="157.68"/>
			</g>
			<line class="st5" x1="73.86" y1="167.3" x2="109.83" y2="167.3"/>
			<line class="st2" x1="103.55" y1="73.58" x2="95.52" y2="73.58"/>
			<line class="st2" x1="79.28" y1="77.84" x2="84.08" y2="77.84"/>
			<line class="st2" x1="87.79" y1="84.69" x2="91.85" y2="84.69"/>
		</g>
	</g>
	<g id="New_Symbol_11">
	</g>
	<g id="New_Symbol_14">
	</g>
	<g id="New_Symbol_12">
	</g>
	<g id="New_Symbol_9_1_">
	</g>
	<g id="New_Symbol_18">
	</g>
	<g id="New_Symbol_19">
	</g>
	<g id="New_Symbol_20">
	</g>
	<g id="New_Symbol_23">
	</g>
	<g id="New_Symbol_17">
	</g>
</g>
<g id="Text">
</g>
</svg>
